<svg width="536" height="96" viewBox="0 0 536 96" fill="none" xmlns="http://www.w3.org/2000/svg">
<path d="M6 48.2778C12.325 46.0467 18.7746 45.0268 25.294 44.0597C45.2768 41.0953 65.3519 39.229 85.3445 36.345C96.3139 34.7626 107.492 32.2934 118.578 32.2934C119.371 32.2934 121.396 32.3115 120.171 33.8474C119.744 34.3832 116.511 36.8301 118.578 37.5105C122.829 38.9096 137.238 41.1309 138.226 41.2846C170.768 46.3475 203.416 50.4075 236.068 54.1609C258.13 56.6971 280.506 59.5395 302.712 60.2106C306.089 60.3127 316.136 61.0038 312.846 60.0441C301.8 56.8223 289.338 57.2322 278.152 56.8805C265.216 56.4738 252.513 56.381 239.564 56.381C233.664 56.381 227.763 56.41 221.863 56.492C218.44 56.5395 215.018 56.6337 211.597 56.7695C210.356 56.8187 208.757 55.9462 207.879 57.047C207.076 58.0547 210.151 57.158 211.287 57.158C214.665 57.158 218.043 57.0864 221.421 57.047C242.649 56.7997 263.871 56.6043 285.1 56.8805C306.326 57.1567 369.993 56.7628 348.779 57.713C328.306 58.6301 307.827 58.5786 287.357 59.8221C282.48 60.1183 270.988 60.823 265.053 61.7091C264.037 61.861 261.282 61.6283 262.044 62.4862C263.241 63.8335 265.185 63.3888 266.779 63.6517C271.473 64.4255 276.182 65.0486 280.896 65.5942C333.283 71.6582 386.368 76.6905 439.01 75.4735C459.233 75.0059 472.326 73.9097 492.157 70.9779C501.272 69.6303 514.472 67.5484 523.886 63.8737C526.238 62.9556 531.944 61.5832 529.329 56.381C528.105 53.946 526.357 51.8334 524.372 50.3868C513.494 42.4556 494.211 35.1936 483.483 31.6273C414.901 8.82796 345.382 1.93231 274.7 8.20573C234.499 11.7738 207.492 16.0886 168.008 24.4677C139.749 30.4645 110.777 37.4785 83.3532 48.3888C81.2188 49.2379 72.5513 53.2321 69.9889 55.826C65.1583 60.7161 75.6389 64.0685 76.5825 64.4287C104.441 75.0628 135.292 77.5438 164.158 80.1356C178.74 81.4449 222.505 83.1519 208.012 80.7461C184.984 76.9235 160.645 78.5631 137.518 77.5826C120.16 76.8466 94.9042 75.6816 77.4233 74.6965C65.1231 74.0033 51.2715 74.2858 38.968 71.3664C23.7281 67.7502 69.9996 71.8826 85.4773 73.1424C140.901 77.6538 196.243 83.6579 251.733 86.8513C273.923 88.1282 286.415 88.5707 307.934 89.0158C317.868 89.2214 328.826 88.2793 338.866 89.4599C348.546 90.598 319.398 89.7246 309.704 88.7938C271.676 85.1425 233.856 79.3079 195.754 76.6945C171.817 75.0527 99.9156 73.2534 123.888 73.2534" stroke="#FFAC8A" stroke-width="12" stroke-linecap="round"/>
</svg>
